<svg width="310" height="56" viewBox="0 0 310 56" fill="none" xmlns="http://www.w3.org/2000/svg">
<path d="M84.6618 42.525C82.7173 42.525 80.8993 42.1847 79.2076 41.5042C77.516 40.8042 76.0285 39.8417 74.7451 38.6167C73.4812 37.3722 72.4896 35.9236 71.7701 34.2708C71.0701 32.6181 70.7201 30.8292 70.7201 28.9042C70.7201 26.9792 71.0701 25.1903 71.7701 23.5375C72.4896 21.8847 73.4812 20.4361 74.7451 19.1917C76.0285 17.9472 77.5062 16.975 79.1785 16.275C80.8701 15.575 82.6882 15.225 84.6326 15.225C86.4604 15.225 88.1715 15.5361 89.766 16.1583C91.3604 16.7806 92.7701 17.6556 93.9951 18.7833L92.7701 23.8C91.9535 22.4778 90.8451 21.3986 89.4451 20.5625C88.0451 19.7069 86.441 19.2792 84.6326 19.2792C82.8437 19.2792 81.2396 19.7069 79.8201 20.5625C78.4007 21.4181 77.2729 22.575 76.4368 24.0333C75.6007 25.4722 75.1826 27.0958 75.1826 28.9042C75.1826 30.7125 75.591 32.3458 76.4076 33.8042C77.2437 35.2431 78.3715 36.3903 79.791 37.2458C81.2298 38.1014 82.834 38.5292 84.6035 38.5292C85.5368 38.5292 86.4215 38.4222 87.2576 38.2083C88.0937 37.9944 88.8521 37.6931 89.5326 37.3042V31.325H83.2618V27.65H93.5285V39.8125C92.3423 40.6875 90.9812 41.3583 89.4451 41.825C87.9285 42.2917 86.334 42.525 84.6618 42.525ZM103.519 42L108.681 32.3167C108.331 32.5306 107.962 32.6764 107.573 32.7542C107.204 32.8319 106.834 32.8708 106.465 32.8708C104.87 32.8708 103.422 32.4917 102.119 31.7333C100.816 30.9556 99.7759 29.9153 98.9981 28.6125C98.2203 27.2903 97.8314 25.8125 97.8314 24.1792C97.8314 22.4875 98.2398 20.9708 99.0564 19.6292C99.8731 18.2875 100.972 17.2278 102.352 16.45C103.752 15.6722 105.288 15.2833 106.961 15.2833C108.672 15.2833 110.218 15.6722 111.598 16.45C112.979 17.2278 114.077 18.2875 114.894 19.6292C115.711 20.9514 116.119 22.4486 116.119 24.1208C116.119 24.8986 116.022 25.6472 115.827 26.3667C115.633 27.0861 115.361 27.7861 115.011 28.4667L107.952 42H103.519ZM106.99 29.3125C107.923 29.3125 108.769 29.0889 109.527 28.6417C110.305 28.175 110.918 27.5528 111.365 26.775C111.831 25.9972 112.065 25.1417 112.065 24.2083C112.065 23.275 111.831 22.4292 111.365 21.6708C110.918 20.8931 110.305 20.2806 109.527 19.8333C108.769 19.3667 107.923 19.1333 106.99 19.1333C106.037 19.1333 105.172 19.3667 104.394 19.8333C103.636 20.2806 103.023 20.8931 102.556 21.6708C102.109 22.4292 101.886 23.2847 101.886 24.2375C101.886 25.1514 102.109 25.9972 102.556 26.775C103.023 27.5528 103.636 28.175 104.394 28.6417C105.172 29.0889 106.037 29.3125 106.99 29.3125ZM132.425 42.4667C131.453 42.4667 130.49 42.3111 129.537 42C128.585 41.7083 127.778 41.2222 127.117 40.5417L128.283 36.3417C128.711 37.0028 129.246 37.5375 129.887 37.9458C130.549 38.3347 131.287 38.5292 132.104 38.5292C133.076 38.5292 133.903 38.1986 134.583 37.5375C135.283 36.8764 135.633 35.7389 135.633 34.125V15.75H140.008V34.4458C140.008 36.2931 139.649 37.8097 138.929 38.9958C138.229 40.1819 137.296 41.0569 136.129 41.6208C134.982 42.1847 133.747 42.4667 132.425 42.4667ZM146.041 42V15.75H159.516V19.5125H150.241V24.325H157.475V28H150.241V38.15H159.516V42H146.041ZM171.912 42.9042L161.441 15.75H165.904L171.095 29.225C171.309 29.75 171.504 30.2847 171.679 30.8292C171.854 31.3542 172.038 31.9958 172.233 32.7542C172.447 31.9958 172.651 31.3542 172.845 30.8292C173.04 30.2847 173.234 29.75 173.429 29.225L178.941 14.875L184.454 29.225C184.648 29.7306 184.852 30.2556 185.066 30.8C185.28 31.325 185.484 31.9764 185.679 32.7542C185.893 31.9764 186.087 31.325 186.262 30.8C186.456 30.2556 186.651 29.7306 186.845 29.225L191.979 15.75H196.208L185.766 42.9042L180.02 27.9125C179.826 27.4069 179.631 26.8917 179.437 26.3667C179.243 25.8222 179.048 25.1611 178.854 24.3833C178.64 25.1611 178.436 25.8125 178.241 26.3375C178.047 26.8625 177.852 27.3875 177.658 27.9125L171.912 42.9042ZM199.69 42V15.75H213.165V19.5125H203.89V24.325H211.123V28H203.89V38.15H213.165V42H199.69ZM218.065 42V15.75H222.44V38.15H230.927V42H218.065ZM235.578 42V15.75H239.953V38.15H248.441V42H235.578ZM253.092 42V15.75H266.567V19.5125H257.292V24.325H264.525V28H257.292V38.15H266.567V42H253.092ZM271.554 42V15.75H278.875C280.645 15.75 282.161 16.1097 283.425 16.8292C284.709 17.5292 285.691 18.4625 286.371 19.6292C287.052 20.7958 287.392 22.0792 287.392 23.4792C287.392 24.8792 287.042 26.1431 286.342 27.2708C285.642 28.3986 284.66 29.2736 283.396 29.8958L291.271 42H286.459L279.371 30.975H275.754V42H271.554ZM275.754 27.3875H278.817C279.848 27.3875 280.684 27.1931 281.325 26.8042C281.986 26.4153 282.473 25.9194 282.784 25.3167C283.114 24.7139 283.279 24.1014 283.279 23.4792C283.279 22.3514 282.871 21.4278 282.054 20.7083C281.238 19.9694 280.159 19.6 278.817 19.6H275.754V27.3875ZM297.567 42V29.4583L289.867 15.75H294.737L298.442 22.5167C298.694 22.9639 298.937 23.4208 299.171 23.8875C299.404 24.3347 299.637 24.8694 299.871 25.4917C300.124 24.8694 300.367 24.3347 300.6 23.8875C300.833 23.4208 301.076 22.9639 301.329 22.5167L305.062 15.75H309.583L301.883 29.4583V42H297.567Z" fill="#00643C"/>
<g clip-path="url(#clip0_7_345)">
<path d="M37.5222 9H11.4778L0 22.0742L13.6085 35.8838L13.8095 35.6823C16.5835 32.9015 16.5969 28.3946 13.8363 25.6004L10.9652 22.6921L16.8314 16.0056H32.172L38.0415 22.6921L24.5 36.4648L21.9505 39.0843C20.5032 40.5687 20.5099 42.9397 21.9639 44.4174L24.5034 47L49.0034 22.0742L37.5222 9Z" fill="url(#paint0_linear_7_345)"/>
<path d="M20.1414 19.008L16.808 22.8063L24.5 30.6346L32.1921 22.8063L28.8586 19.008H20.1414Z" fill="url(#paint1_linear_7_345)"/>
<path d="M37.5222 9L32.1686 16.0056H16.828L10.9618 22.6921L4.84436 16.5563L11.4778 9H37.5222Z" fill="url(#paint2_linear_7_345)"/>
</g>
<defs>
<linearGradient id="paint0_linear_7_345" x1="40.4599" y1="39.9855" x2="18.2951" y2="15.1336" gradientUnits="userSpaceOnUse">
<stop stop-color="#00643C"/>
<stop offset="0.605769" stop-color="#009459"/>
</linearGradient>
<linearGradient id="paint1_linear_7_345" x1="22.0542" y1="19.5375" x2="28.4215" y2="28.0066" gradientUnits="userSpaceOnUse">
<stop stop-color="#009459"/>
<stop offset="1" stop-color="#00643C"/>
</linearGradient>
<linearGradient id="paint2_linear_7_345" x1="7.4951" y1="21.8389" x2="21.2162" y2="12.9419" gradientUnits="userSpaceOnUse">
<stop stop-color="#009459"/>
<stop offset="1" stop-color="#009459"/>
</linearGradient>
<clipPath id="clip0_7_345">
<rect width="49" height="38" fill="white" transform="translate(0 9)"/>
</clipPath>
</defs>
</svg>
